<?xml version="1.0" encoding="UTF-8"?>
<!DOCTYPE svg PUBLIC "-//W3C//DTD SVG 1.1//EN" "http://www.w3.org/Graphics/SVG/1.1/DTD/svg11.dtd">
<!-- Creator: CorelDRAW -->
<svg xmlns="http://www.w3.org/2000/svg" xml:space="preserve" width="1.77937in" height="0.979224in" style="shape-rendering:geometricPrecision; text-rendering:geometricPrecision; image-rendering:optimizeQuality; fill-rule:evenodd; clip-rule:evenodd"
viewBox="0 0 1.77938 0.979229"
 xmlns:xlink="http://www.w3.org/1999/xlink">
 <defs>
  <style type="text/css">
   <![CDATA[
    .fil0 {fill:black}
    .fil2 {fill:#6483C0}
    .fil1 {fill:#952781}
    .fil3 {fill:#D87B30}
    .fil4 {fill:#E0D400}
   ]]>
  </style>
 </defs>
 <g id="Layer_x0020_1">
  <metadata id="CorelCorpID_0Corel-Layer"/>
  <path class="fil0" d="M1.05091 0.746354l0 -0.292541 0.376147 0.179127 0 0.316458 -0.376147 -0.203021m0 -2.36222e-005l0 0 0 0z"/>
  <path class="fil1" d="M1.08078 0.722503l0 -0.232887 0.334356 0.161229 0 0.250836 -0.334356 -0.179166m0 -1.18111e-005l0 0 0 0z"/>
  <path class="fil0" d="M1.05091 0.453801l0.358261 -0.155261 0.36423 0.173158 -0.328438 0.173166 -0.394065 -0.191064m1.18111e-005 0l0 0 0 0z"/>
  <path class="fil1" d="M1.11061 0.45977l0.292604 -0.125418 0.31047 0.143335 -0.280627 0.143292 -0.32245 -0.161209m3.93703e-006 0l0 0 0 0z"/>
  <path class="fil0" d="M1.42112 0.638893l0.00593703 0.31049 0.352324 -0.173127 -0.00598822 -0.304482 -0.352293 0.16719m1.96851e-005 -7.08665e-005l0 0 0 0z"/>
  <polygon class="fil1" points="1.45693,0.650834 1.45693,0.901614 1.74355,0.758334 1.74355,0.501561 "/>
  <path class="fil0" d="M0.513542 0.441841l0 -0.292572 0.376147 0.179146 0 0.316458 -0.376147 -0.203021m0 -1.18111e-005l0 0 0 0z"/>
  <path class="fil2" d="M0.543384 0.41797l0 -0.232863 0.334356 0.161221 0 0.256773 -0.334356 -0.185139m0 7.87405e-006l0 0 0 0z"/>
  <polygon class="fil0" points="0.513542,0.149268 0.871744,0 1.236,0.16719 0.907606,0.340352 "/>
  <path class="fil2" d="M0.573203 0.155249l0.292604 -0.125386 0.310501 0.143292 -0.280647 0.143304 -0.322458 -0.161202m0 -7.87405e-006l0 0 0 0z"/>
  <path class="fil0" d="M0.883717 0.334372l0.00596853 0.31049 0.352293 -0.173166 -0.00604333 -0.304501 -0.352281 0.167178m5.90554e-005 0l0 0 0 0z"/>
  <path class="fil2" d="M0.919543 0.34632l0 0.250781 0.286604 -0.143304 3.93703e-006 -0.250781 -0.286608 0.143296m0 7.87405e-006l0 0 0 0z"/>
  <polygon class="fil0" points="-0,0.728464 -0,0.43588 0.370214,0.615003 0.376183,0.931512 "/>
  <path class="fil3" d="M0.0298505 0.704582l0 -0.232895 0.334375 0.161229 0 0.250836 -0.334375 -0.179166m0 -3.93703e-006l0 0 0 0z"/>
  <path class="fil0" d="M-0 0.43588l0.358254 -0.155241 0.36425 0.173158 -0.334379 0.173178 -0.388124 -0.191107m0 1.18111e-005l0 0 0 0z"/>
  <path class="fil3" d="M0.0537522 0.441841l0.298545 -0.125382 0.310501 0.143335 -0.280659 0.143292 -0.328387 -0.161253m0 7.87405e-006l0 0 0 0z"/>
  <path class="fil0" d="M0.370214 0.620983l0.00596853 0.310521 0.352293 -0.173166 -0.00598034 -0.304533 -0.352293 0.16719m1.18111e-005 -1.18111e-005l0 0 0 0z"/>
  <path class="fil3" d="M0.400053 0.632912l0.00598822 0.250812 0.286604 -0.143335 -0.00596853 -0.256749 -0.286564 0.149272m-5.90554e-005 0l0 0 0 0z"/>
  <path class="fil0" d="M0.543384 0.770251l0 -0.292564 0.370179 0.179127 0.00598034 0.322399 -0.376147 -0.208958m-1.18111e-005 -3.93703e-006l0 0 0 0z"/>
  <path class="fil4" d="M0.573203 0.752354l0 -0.238855 0.334407 0.161229 0 0.256773 -0.334419 -0.179135m1.18111e-005 -1.18111e-005l0 0 0 0z"/>
  <path class="fil0" d="M0.543384 0.477691l0.35823 -0.149272 0.364254 0.167166 -0.334375 0.173166 -0.388104 -0.191064m-3.93703e-006 3.93703e-006l0 0 0 0z"/>
  <path class="fil4" d="M0.597105 0.489612l0.298545 -0.125386 0.310501 0.143304 -0.286604 0.137335 -0.322438 -0.155253m-3.93703e-006 0l0 0 0 0z"/>
  <path class="fil0" d="M0.913567 0.662771l0.00598034 0.316458 0.346324 -0.179127 -3.93703e-006 -0.304521 -0.352293 0.16719m-7.87405e-006 0l0 0 0 0z"/>
  <polygon class="fil4" points="0.943445,0.674731 0.949374,0.925504 1.23601,0.788161 1.23004,0.531412 "/>
 </g>
</svg>
